<svg xmlns="http://www.w3.org/2000/svg" width="960" height="480" viewBox="0 0 960 480" role="img" aria-labelledby="title desc">
  <title id="title">Two-node Kirchhoff network ESE111-CH04-NET-01</title>
  <desc id="desc">A six volt source feeds R1 into test point A. R2 connects A to common. R3 connects A to test point B. R4 connects B to common. Current arrows I1 through I4 follow those directions.</desc>
  <rect x="1" y="1" width="958" height="478" fill="white" stroke="black" stroke-width="2"/>
  <text x="45" y="75" font-family="sans-serif" font-size="24">V<tspan baseline-shift="sub">S</tspan> = 6.0 V</text>
  <line x1="120" y1="110" x2="260" y2="110" stroke="black" stroke-width="4"/>
  <polyline points="260,110 280,90 300,130 320,90 340,130 360,90 380,110" fill="none" stroke="black" stroke-width="4"/>
  <line x1="380" y1="110" x2="470" y2="110" stroke="black" stroke-width="4"/>
  <circle cx="470" cy="110" r="7" fill="black"/>
  <text x="280" y="65" font-family="sans-serif" font-size="22">R1 10 kΩ</text>
  <text x="430" y="90" font-family="sans-serif" font-size="22">TP-A</text>
  <line x1="470" y1="110" x2="570" y2="110" stroke="black" stroke-width="4"/>
  <polyline points="570,110 590,90 610,130 630,90 650,130 670,90 690,110" fill="none" stroke="black" stroke-width="4"/>
  <line x1="690" y1="110" x2="790" y2="110" stroke="black" stroke-width="4"/>
  <circle cx="790" cy="110" r="7" fill="black"/>
  <text x="585" y="65" font-family="sans-serif" font-size="22">R3 33 kΩ</text>
  <text x="750" y="90" font-family="sans-serif" font-size="22">TP-B</text>
  <line x1="470" y1="110" x2="470" y2="175" stroke="black" stroke-width="4"/>
  <polyline points="470,175 450,195 490,215 450,235 490,255 450,275 470,295" fill="none" stroke="black" stroke-width="4"/>
  <line x1="470" y1="295" x2="470" y2="370" stroke="black" stroke-width="4"/>
  <text x="365" y="235" font-family="sans-serif" font-size="22">R2 22 kΩ</text>
  <line x1="790" y1="110" x2="790" y2="175" stroke="black" stroke-width="4"/>
  <polyline points="790,175 770,195 810,215 770,235 810,255 770,275 790,295" fill="none" stroke="black" stroke-width="4"/>
  <line x1="790" y1="295" x2="790" y2="370" stroke="black" stroke-width="4"/>
  <text x="815" y="225" font-family="sans-serif" font-size="22">R4 15 kΩ baseline</text>
  <text x="815" y="255" font-family="sans-serif" font-size="22">22 kΩ redesign</text>
  <line x1="120" y1="370" x2="840" y2="370" stroke="black" stroke-width="4"/>
  <line x1="120" y1="110" x2="120" y2="185" stroke="black" stroke-width="4"/>
  <line x1="90" y1="205" x2="150" y2="205" stroke="black" stroke-width="4"/>
  <line x1="105" y1="230" x2="135" y2="230" stroke="black" stroke-width="4"/>
  <line x1="120" y1="230" x2="120" y2="370" stroke="black" stroke-width="4"/>
  <text x="90" y="415" font-family="sans-serif" font-size="22">COM: declared 0 V reference</text>
  <defs><marker id="arrow" markerWidth="10" markerHeight="7" refX="9" refY="3.5" orient="auto"><polygon points="0 0, 10 3.5, 0 7" fill="black"/></marker></defs>
  <line x1="205" y1="145" x2="330" y2="145" stroke="black" stroke-width="2" marker-end="url(#arrow)"/>
  <text x="245" y="175" font-family="sans-serif" font-size="20">I1</text>
  <line x1="515" y1="145" x2="650" y2="145" stroke="black" stroke-width="2" marker-end="url(#arrow)"/>
  <text x="570" y="175" font-family="sans-serif" font-size="20">I3</text>
  <line x1="430" y1="185" x2="430" y2="280" stroke="black" stroke-width="2" marker-end="url(#arrow)"/>
  <text x="395" y="285" font-family="sans-serif" font-size="20">I2</text>
  <line x1="750" y1="185" x2="750" y2="280" stroke="black" stroke-width="2" marker-end="url(#arrow)"/>
  <text x="715" y="285" font-family="sans-serif" font-size="20">I4</text>
</svg>

