<svg xmlns="http://www.w3.org/2000/svg" width="1100" height="520" viewBox="0 0 1100 520">
  <defs>
    <marker id="axis-arrow" markerWidth="10" markerHeight="10" refX="8" refY="3" orient="auto" markerUnits="strokeWidth">
      <path d="M0,0 L0,6 L9,3 z" fill="black"/>
    </marker>
  </defs>
  <rect width="1100" height="520" fill="white"/>
  <g font-family="sans-serif" fill="black" stroke="black">
    <text x="275" y="32" text-anchor="middle" font-size="23" stroke="none">Signed diode regions (qualitative)</text>
    <line x1="55" y1="300" x2="510" y2="300" stroke-width="2" marker-end="url(#axis-arrow)"/>
    <line x1="315" y1="445" x2="315" y2="55" stroke-width="2" marker-end="url(#axis-arrow)"/>
    <text x="515" y="326" font-size="19" stroke="none">Vᴅ</text>
    <text x="325" y="67" font-size="19" stroke="none">Iᴅ</text>
    <text x="330" y="323" font-size="16" stroke="none">0</text>
    <path d="M315 300 C355 300 390 296 415 272 C440 245 455 155 468 72" fill="none" stroke-width="4"/>
    <path d="M315 300 C260 303 190 306 125 309 C105 310 95 325 90 355 C85 382 78 412 65 438" fill="none" stroke-width="4"/>
    <line x1="125" y1="290" x2="125" y2="330" stroke-dasharray="5 5"/>
    <text x="80" y="282" font-size="17" stroke="none">−V_BR</text>
    <text x="382" y="112" font-size="18" stroke="none">forward conduction</text>
    <text x="145" y="285" font-size="18" stroke="none">reverse leakage</text>
    <text x="60" y="465" font-size="18" stroke="none">reverse breakdown</text>
    <text x="275" y="490" text-anchor="middle" font-size="16" stroke="none">Qualitative only; scales vary by device and temperature.</text>

    <text x="815" y="32" text-anchor="middle" font-size="23" stroke="none">Synthetic operating-point construction</text>
    <line x1="625" y1="420" x2="1055" y2="420" stroke-width="2" marker-end="url(#axis-arrow)"/>
    <line x1="625" y1="435" x2="625" y2="55" stroke-width="2" marker-end="url(#axis-arrow)"/>
    <text x="970" y="470" font-size="19" stroke="none">Vᴅ (V)</text>
    <text x="635" y="67" font-size="19" stroke="none">Iᴅ (mA)</text>
    <g font-size="15" stroke="none" text-anchor="middle">
      <text x="625" y="443">0</text><text x="705" y="443">1</text><text x="785" y="443">2</text>
      <text x="865" y="443">3</text><text x="945" y="443">4</text><text x="1025" y="443">5</text>
    </g>
    <g stroke="#cccccc">
      <line x1="705" y1="70" x2="705" y2="420"/><line x1="785" y1="70" x2="785" y2="420"/>
      <line x1="865" y1="70" x2="865" y2="420"/><line x1="945" y1="70" x2="945" y2="420"/>
      <line x1="1025" y1="70" x2="1025" y2="420"/>
      <line x1="625" y1="350" x2="1025" y2="350"/><line x1="625" y1="280" x2="1025" y2="280"/>
      <line x1="625" y1="210" x2="1025" y2="210"/><line x1="625" y1="140" x2="1025" y2="140"/>
      <line x1="625" y1="70" x2="1025" y2="70"/>
    </g>
    <g font-size="15" stroke="none" text-anchor="end">
      <text x="615" y="425">0</text><text x="615" y="355">1</text><text x="615" y="285">2</text>
      <text x="615" y="215">3</text><text x="615" y="145">4</text><text x="615" y="75">5</text>
    </g>
    <line x1="625" y1="70" x2="1025" y2="420" stroke="#555555" stroke-width="3" stroke-dasharray="10 7"/>
    <path d="M625 420 C650 420 660 418 665 413 C668 408 669 400 670 395 C672 380 673 360 675 320 C676 280 677 240 678 180 C679 140 680 100 681 65" fill="none" stroke-width="4"/>
    <circle cx="679" cy="119" r="6" fill="white" stroke-width="3"/>
    <text x="694" y="133" font-size="17" stroke="none">Q: 0.6746 V, 4.325 mA</text>
    <circle cx="681" cy="119" r="3" fill="black"/>
    <circle cx="681" cy="119" r="8" fill="none" stroke="#555555" stroke-dasharray="3 3"/>
    <text x="710" y="165" font-size="16" stroke="none">0.70 V estimate: 4.30 mA</text>
    <text x="710" y="84" font-size="16" stroke="none">Vₛ/Rₛ = 5.00 mA</text>
    <text x="940" y="404" font-size="16" stroke="none">Vᴅ = Vₛ = 5.00 V</text>
    <line x1="825" y1="95" x2="875" y2="95" stroke="#555555" stroke-width="3" stroke-dasharray="10 7"/>
    <text x="885" y="101" font-size="16" stroke="none">source line</text>
    <line x1="825" y1="120" x2="875" y2="120" stroke-width="4"/>
    <text x="885" y="126" font-size="16" stroke="none">fitted diode curve</text>
    <text x="815" y="490" text-anchor="middle" font-size="16" stroke="none">Vₛ = 5.00 V, Rₛ = 1.00 kΩ, Iₛ = 2.0 nA, n = 1.8, T = 298.15 K</text>
  </g>
</svg>
