<svg xmlns="http://www.w3.org/2000/svg" width="900" height="620" viewBox="0 0 900 620">
<rect width="100%" height="100%" fill="white"/>
<g font-family="sans-serif" font-size="15" fill="black" stroke="black" stroke-width="1">
<line x1="90.00" y1="45" x2="90.00" y2="570" stroke="#bbbbbb"/>
<text x="90.00" y="600" text-anchor="middle" stroke="none">0.01</text>
<line x1="285.00" y1="45" x2="285.00" y2="570" stroke="#bbbbbb"/>
<text x="285.00" y="600" text-anchor="middle" stroke="none">0.1</text>
<line x1="480.00" y1="45" x2="480.00" y2="570" stroke="#bbbbbb"/>
<text x="480.00" y="600" text-anchor="middle" stroke="none">1</text>
<line x1="675.00" y1="45" x2="675.00" y2="570" stroke="#bbbbbb"/>
<text x="675.00" y="600" text-anchor="middle" stroke="none">10</text>
<line x1="870.00" y1="45" x2="870.00" y2="570" stroke="#bbbbbb"/>
<text x="870.00" y="600" text-anchor="middle" stroke="none">100</text>
<line x1="90" y1="67.00" x2="870" y2="67.00" stroke="#dddddd"/>
<text x="78" y="72.00" text-anchor="end" stroke="none">0</text>
<line x1="90" y1="111.00" x2="870" y2="111.00" stroke="#dddddd"/>
<text x="78" y="116.00" text-anchor="end" stroke="none">-10</text>
<line x1="90" y1="155.00" x2="870" y2="155.00" stroke="#dddddd"/>
<text x="78" y="160.00" text-anchor="end" stroke="none">-20</text>
<line x1="90" y1="199.00" x2="870" y2="199.00" stroke="#dddddd"/>
<text x="78" y="204.00" text-anchor="end" stroke="none">-30</text>
<line x1="90" y1="243.00" x2="870" y2="243.00" stroke="#dddddd"/>
<text x="78" y="248.00" text-anchor="end" stroke="none">-40</text>
<line x1="90" y1="361.00" x2="870" y2="361.00" stroke="#dddddd"/>
<text x="78" y="366.00" text-anchor="end" stroke="none">0°</text>
<line x1="90" y1="427.00" x2="870" y2="427.00" stroke="#dddddd"/>
<text x="78" y="432.00" text-anchor="end" stroke="none">-30°</text>
<line x1="90" y1="460.00" x2="870" y2="460.00" stroke="#dddddd"/>
<text x="78" y="465.00" text-anchor="end" stroke="none">-45°</text>
<line x1="90" y1="493.00" x2="870" y2="493.00" stroke="#dddddd"/>
<text x="78" y="498.00" text-anchor="end" stroke="none">-60°</text>
<line x1="90" y1="559.00" x2="870" y2="559.00" stroke="#dddddd"/>
<text x="78" y="564.00" text-anchor="end" stroke="none">-90°</text>
<line x1="480.00" y1="45" x2="480.00" y2="570" stroke="black" stroke-dasharray="2 6" stroke-width="2"/>
<path d="M 90.00 67.00 L 93.25 67.00 L 96.50 67.00 L 99.75 67.00 L 103.00 67.00 L 106.25 67.00 L 109.50 67.00 L 112.75 67.00 L 116.00 67.00 L 119.25 67.00 L 122.50 67.00 L 125.75 67.00 L 129.00 67.00 L 132.25 67.01 L 135.50 67.01 L 138.75 67.01 L 142.00 67.01 L 145.25 67.01 L 148.50 67.01 L 151.75 67.01 L 155.00 67.01 L 158.25 67.01 L 161.50 67.01 L 164.75 67.01 L 168.00 67.01 L 171.25 67.01 L 174.50 67.01 L 177.75 67.02 L 181.00 67.02 L 184.25 67.02 L 187.50 67.02 L 190.75 67.02 L 194.00 67.02 L 197.25 67.02 L 200.50 67.03 L 203.75 67.03 L 207.00 67.03 L 210.25 67.03 L 213.50 67.04 L 216.75 67.04 L 220.00 67.04 L 223.25 67.04 L 226.50 67.05 L 229.75 67.05 L 233.00 67.06 L 236.25 67.06 L 239.50 67.07 L 242.75 67.07 L 246.00 67.08 L 249.25 67.08 L 252.50 67.09 L 255.75 67.10 L 259.00 67.10 L 262.25 67.11 L 265.50 67.12 L 268.75 67.13 L 272.00 67.14 L 275.25 67.15 L 278.50 67.16 L 281.75 67.18 L 285.00 67.19 L 288.25 67.21 L 291.50 67.22 L 294.75 67.24 L 298.00 67.26 L 301.25 67.28 L 304.50 67.30 L 307.75 67.32 L 311.00 67.35 L 314.25 67.38 L 317.50 67.41 L 320.75 67.44 L 324.00 67.47 L 327.25 67.51 L 330.50 67.55 L 333.75 67.59 L 337.00 67.64 L 340.25 67.69 L 343.50 67.75 L 346.75 67.80 L 350.00 67.87 L 353.25 67.93 L 356.50 68.01 L 359.75 68.09 L 363.00 68.17 L 366.25 68.26 L 369.50 68.36 L 372.75 68.46 L 376.00 68.57 L 379.25 68.69 L 382.50 68.82 L 385.75 68.96 L 389.00 69.11 L 392.25 69.27 L 395.50 69.44 L 398.75 69.62 L 402.00 69.81 L 405.25 70.02 L 408.50 70.24 L 411.75 70.48 L 415.00 70.73 L 418.25 71.00 L 421.50 71.28 L 424.75 71.59 L 428.00 71.91 L 431.25 72.25 L 434.50 72.61 L 437.75 73.00 L 441.00 73.40 L 444.25 73.83 L 447.50 74.29 L 450.75 74.76 L 454.00 75.27 L 457.25 75.79 L 460.50 76.35 L 463.75 76.93 L 467.00 77.54 L 470.25 78.17 L 473.50 78.83 L 476.75 79.53 L 480.00 80.25 L 483.25 80.99 L 486.50 81.77 L 489.75 82.57 L 493.00 83.40 L 496.25 84.26 L 499.50 85.15 L 502.75 86.06 L 506.00 87.00 L 509.25 87.96 L 512.50 88.95 L 515.75 89.97 L 519.00 91.00 L 522.25 92.06 L 525.50 93.15 L 528.75 94.25 L 532.00 95.37 L 535.25 96.52 L 538.50 97.68 L 541.75 98.86 L 545.00 100.06 L 548.25 101.28 L 551.50 102.51 L 554.75 103.75 L 558.00 105.01 L 561.25 106.28 L 564.50 107.57 L 567.75 108.87 L 571.00 110.17 L 574.25 111.49 L 577.50 112.82 L 580.75 114.16 L 584.00 115.51 L 587.25 116.86 L 590.50 118.22 L 593.75 119.59 L 597.00 120.97 L 600.25 122.35 L 603.50 123.74 L 606.75 125.13 L 610.00 126.53 L 613.25 127.94 L 616.50 129.35 L 619.75 130.76 L 623.00 132.17 L 626.25 133.59 L 629.50 135.02 L 632.75 136.44 L 636.00 137.87 L 639.25 139.31 L 642.50 140.74 L 645.75 142.18 L 649.00 143.62 L 652.25 145.06 L 655.50 146.50 L 658.75 147.95 L 662.00 149.39 L 665.25 150.84 L 668.50 152.29 L 671.75 153.74 L 675.00 155.19 L 678.25 156.64 L 681.50 158.10 L 684.75 159.55 L 688.00 161.01 L 691.25 162.46 L 694.50 163.92 L 697.75 165.38 L 701.00 166.84 L 704.25 168.30 L 707.50 169.76 L 710.75 171.22 L 714.00 172.68 L 717.25 174.14 L 720.50 175.60 L 723.75 177.06 L 727.00 178.52 L 730.25 179.99 L 733.50 181.45 L 736.75 182.91 L 740.00 184.37 L 743.25 185.84 L 746.50 187.30 L 749.75 188.77 L 753.00 190.23 L 756.25 191.69 L 759.50 193.16 L 762.75 194.62 L 766.00 196.09 L 769.25 197.55 L 772.50 199.02 L 775.75 200.48 L 779.00 201.95 L 782.25 203.42 L 785.50 204.88 L 788.75 206.35 L 792.00 207.81 L 795.25 209.28 L 798.50 210.74 L 801.75 212.21 L 805.00 213.68 L 808.25 215.14 L 811.50 216.61 L 814.75 218.07 L 818.00 219.54 L 821.25 221.01 L 824.50 222.47 L 827.75 223.94 L 831.00 225.40 L 834.25 226.87 L 837.50 228.34 L 840.75 229.80 L 844.00 231.27 L 847.25 232.74 L 850.50 234.20 L 853.75 235.67 L 857.00 237.14 L 860.25 238.60 L 863.50 240.07 L 866.75 241.54 L 870.00 243.00" fill="none" stroke="black" stroke-width="3"/>
<path d="M 90.00 67.00 L 480.00 67.00 L 870.00 243.00" fill="none" stroke="#555555" stroke-width="2" stroke-dasharray="10 7"/>
<path d="M 90.00 362.26 L 93.25 362.31 L 96.50 362.36 L 99.75 362.41 L 103.00 362.47 L 106.25 362.53 L 109.50 362.59 L 112.75 362.65 L 116.00 362.71 L 119.25 362.78 L 122.50 362.85 L 125.75 362.92 L 129.00 363.00 L 132.25 363.08 L 135.50 363.16 L 138.75 363.24 L 142.00 363.33 L 145.25 363.42 L 148.50 363.51 L 151.75 363.61 L 155.00 363.72 L 158.25 363.82 L 161.50 363.93 L 164.75 364.05 L 168.00 364.17 L 171.25 364.29 L 174.50 364.42 L 177.75 364.55 L 181.00 364.69 L 184.25 364.83 L 187.50 364.98 L 190.75 365.14 L 194.00 365.30 L 197.25 365.47 L 200.50 365.65 L 203.75 365.83 L 207.00 366.02 L 210.25 366.21 L 213.50 366.42 L 216.75 366.63 L 220.00 366.85 L 223.25 367.07 L 226.50 367.31 L 229.75 367.56 L 233.00 367.81 L 236.25 368.08 L 239.50 368.36 L 242.75 368.64 L 246.00 368.94 L 249.25 369.25 L 252.50 369.57 L 255.75 369.91 L 259.00 370.26 L 262.25 370.62 L 265.50 370.99 L 268.75 371.38 L 272.00 371.78 L 275.25 372.20 L 278.50 372.64 L 281.75 373.09 L 285.00 373.56 L 288.25 374.05 L 291.50 374.56 L 294.75 375.08 L 298.00 375.63 L 301.25 376.20 L 304.50 376.79 L 307.75 377.40 L 311.00 378.03 L 314.25 378.69 L 317.50 379.37 L 320.75 380.08 L 324.00 380.81 L 327.25 381.57 L 330.50 382.36 L 333.75 383.18 L 337.00 384.03 L 340.25 384.91 L 343.50 385.82 L 346.75 386.77 L 350.00 387.75 L 353.25 388.76 L 356.50 389.81 L 359.75 390.90 L 363.00 392.02 L 366.25 393.18 L 369.50 394.39 L 372.75 395.63 L 376.00 396.91 L 379.25 398.24 L 382.50 399.61 L 385.75 401.02 L 389.00 402.48 L 392.25 403.98 L 395.50 405.53 L 398.75 407.12 L 402.00 408.76 L 405.25 410.44 L 408.50 412.17 L 411.75 413.95 L 415.00 415.78 L 418.25 417.65 L 421.50 419.56 L 424.75 421.52 L 428.00 423.53 L 431.25 425.57 L 434.50 427.66 L 437.75 429.79 L 441.00 431.95 L 444.25 434.15 L 447.50 436.39 L 450.75 438.65 L 454.00 440.95 L 457.25 443.27 L 460.50 445.61 L 463.75 447.98 L 467.00 450.36 L 470.25 452.76 L 473.50 455.17 L 476.75 457.58 L 480.00 460.00 L 483.25 462.42 L 486.50 464.83 L 489.75 467.24 L 493.00 469.64 L 496.25 472.02 L 499.50 474.39 L 502.75 476.73 L 506.00 479.05 L 509.25 481.35 L 512.50 483.61 L 515.75 485.85 L 519.00 488.05 L 522.25 490.21 L 525.50 492.34 L 528.75 494.43 L 532.00 496.47 L 535.25 498.48 L 538.50 500.44 L 541.75 502.35 L 545.00 504.22 L 548.25 506.05 L 551.50 507.83 L 554.75 509.56 L 558.00 511.24 L 561.25 512.88 L 564.50 514.47 L 567.75 516.02 L 571.00 517.52 L 574.25 518.98 L 577.50 520.39 L 580.75 521.76 L 584.00 523.09 L 587.25 524.37 L 590.50 525.61 L 593.75 526.82 L 597.00 527.98 L 600.25 529.10 L 603.50 530.19 L 606.75 531.24 L 610.00 532.25 L 613.25 533.23 L 616.50 534.18 L 619.75 535.09 L 623.00 535.97 L 626.25 536.82 L 629.50 537.64 L 632.75 538.43 L 636.00 539.19 L 639.25 539.92 L 642.50 540.63 L 645.75 541.31 L 649.00 541.97 L 652.25 542.60 L 655.50 543.21 L 658.75 543.80 L 662.00 544.37 L 665.25 544.92 L 668.50 545.44 L 671.75 545.95 L 675.00 546.44 L 678.25 546.91 L 681.50 547.36 L 684.75 547.80 L 688.00 548.22 L 691.25 548.62 L 694.50 549.01 L 697.75 549.38 L 701.00 549.74 L 704.25 550.09 L 707.50 550.43 L 710.75 550.75 L 714.00 551.06 L 717.25 551.36 L 720.50 551.64 L 723.75 551.92 L 727.00 552.19 L 730.25 552.44 L 733.50 552.69 L 736.75 552.93 L 740.00 553.15 L 743.25 553.37 L 746.50 553.58 L 749.75 553.79 L 753.00 553.98 L 756.25 554.17 L 759.50 554.35 L 762.75 554.53 L 766.00 554.70 L 769.25 554.86 L 772.50 555.02 L 775.75 555.17 L 779.00 555.31 L 782.25 555.45 L 785.50 555.58 L 788.75 555.71 L 792.00 555.83 L 795.25 555.95 L 798.50 556.07 L 801.75 556.18 L 805.00 556.28 L 808.25 556.39 L 811.50 556.49 L 814.75 556.58 L 818.00 556.67 L 821.25 556.76 L 824.50 556.84 L 827.75 556.92 L 831.00 557.00 L 834.25 557.08 L 837.50 557.15 L 840.75 557.22 L 844.00 557.29 L 847.25 557.35 L 850.50 557.41 L 853.75 557.47 L 857.00 557.53 L 860.25 557.59 L 863.50 557.64 L 866.75 557.69 L 870.00 557.74" fill="none" stroke="black" stroke-width="3"/>
<circle cx="480.00" cy="80.25" r="5" fill="white" stroke="black" stroke-width="2"/>
<circle cx="480.00" cy="460.00" r="5" fill="white" stroke="black" stroke-width="2"/>
<text x="490.00" y="70.25" stroke="none">−3.010 dB at f = fc</text>
<text x="490.00" y="450.00" stroke="none">−45° at f = fc</text>
<text x="24" y="155" transform="rotate(-90 24 155)" text-anchor="middle" stroke="none">Magnitude (dB)</text>
<text x="24" y="470" transform="rotate(-90 24 470)" text-anchor="middle" stroke="none">Phase (degrees)</text>
<text x="450.00" y="618" text-anchor="middle" stroke="none">Normalized frequency f / fc</text>
<line x1="620" y1="65" x2="675" y2="65" stroke="black" stroke-width="3"/>
<text x="685" y="70" stroke="none">exact response</text>
<line x1="620" y1="90" x2="675" y2="90" stroke="#555555" stroke-width="2" stroke-dasharray="10 7"/>
<text x="685" y="95" stroke="none">Bode asymptote</text>
<text x="700" y="205" stroke="none">−20 dB/decade</text>
</g>
</svg>